<svg width="30px" xmlns="http://www.w3.org/2000/svg" viewBox="0 0 24 20" fill="none" x="0px" y="0px"><path fill-rule="evenodd" clip-rule="evenodd" d="M5.5 7C6.32843 7 7 6.32843 7 5.5C7 4.67157 6.32843 4 5.5 4C4.67157 4 4 4.67157 4 5.5C4 6.32843 4.67157 7 5.5 7ZM7 12C7 12.8284 6.32843 13.5 5.5 13.5C4.67157 13.5 4 12.8284 4 12C4 11.1716 4.67157 10.5 5.5 10.5C6.32843 10.5 7 11.1716 7 12ZM13.5 12C13.5 12.8284 12.8284 13.5 12 13.5C11.1716 13.5 10.5 12.8284 10.5 12C10.5 11.1716 11.1716 10.5 12 10.5C12.8284 10.5 13.5 11.1716 13.5 12ZM18.5 13.5C19.3284 13.5 20 12.8284 20 12C20 11.1716 19.3284 10.5 18.5 10.5C17.6716 10.5 17 11.1716 17 12C17 12.8284 17.6716 13.5 18.5 13.5ZM7 18.5C7 19.3284 6.32843 20 5.5 20C4.67157 20 4 19.3284 4 18.5C4 17.6716 4.67157 17 5.5 17C6.32843 17 7 17.6716 7 18.5ZM12 20C12.8284 20 13.5 19.3284 13.5 18.5C13.5 17.6716 12.8284 17 12 17C11.1716 17 10.5 17.6716 10.5 18.5C10.5 19.3284 11.1716 20 12 20ZM20 18.5C20 19.3284 19.3284 20 18.5 20C17.6716 20 17 19.3284 17 18.5C17 17.6716 17.6716 17 18.5 17C19.3284 17 20 17.6716 20 18.5ZM13.5 5.5C13.5 6.32843 12.8284 7 12 7C11.1716 7 10.5 6.32843 10.5 5.5C10.5 4.67157 11.1716 4 12 4C12.8284 4 13.5 4.67157 13.5 5.5ZM18.5 7C19.3284 7 20 6.32843 20 5.5C20 4.67157 19.3284 4 18.5 4C17.6716 4 17 4.67157 17 5.5C17 6.32843 17.6716 7 18.5 7Z" fill="black"/><text x="0" y="39" fill="#000000" font-size="5px" font-weight="bold" font-family="'Helvetica Neue', Helvetica, Arial-Unicode, Arial, Sans-serif">Created by Cetha Studio</text><text x="0" y="44" fill="#000000" font-size="5px" font-weight="bold" font-family="'Helvetica Neue', Helvetica, Arial-Unicode, Arial, Sans-serif">from the Noun Project</text></svg>